<?xml version="1.0" encoding="UTF-8" standalone="no"?>
<!DOCTYPE svg PUBLIC "-//W3C//DTD SVG 1.1//EN" "http://www.w3.org/Graphics/SVG/1.1/DTD/svg11.dtd">
<svg version="1.1" xmlns="http://www.w3.org/2000/svg" xmlns:xlink="http://www.w3.org/1999/xlink" preserveAspectRatio="xMidYMid meet" viewBox="1.687538997430238e-13 -1.7763568394002505e-15 420.7920792079206 76.23762376237622" width="420.79" height="76.24"><defs><path d="M409.63 0C415.8 0 420.79 5 420.79 11.16C420.79 24.18 420.79 52.06 420.79 65.08C420.79 71.24 415.8 76.24 409.63 76.24C327.71 76.24 93.09 76.24 11.16 76.24C5 76.24 0 71.24 0 65.08C0 52.06 0 24.18 0 11.16C0 5 5 0 11.16 0C93.09 0 327.71 0 409.63 0Z" id="d4Co4P9Fh"></path><path d="M79.56 8.12L27.56 8.12L27.56 62.12L23.56 62.12L23.56 68.12L83.56 68.12L83.56 62.12L79.56 62.12L79.56 8.12ZM77.56 10.12L77.56 62.12L29.56 62.12L29.56 10.12L77.56 10.12ZM25.56 66.12L25.56 64.12L81.56 64.12L81.56 66.12L25.56 66.12Z" id="b3a0dinh8U"></path><path d="M35.56 15.12C35.01 15.12 34.56 15.57 34.56 16.12C34.56 17.92 34.56 32.32 34.56 34.12C34.56 34.67 35.01 35.12 35.56 35.12C37.16 35.12 49.96 35.12 51.56 35.12C52.12 35.12 52.56 34.67 52.56 34.12C52.56 32.32 52.56 17.92 52.56 16.12C52.56 15.57 52.12 15.12 51.56 15.12C48.36 15.12 37.16 15.12 35.56 15.12ZM36.56 33.12L36.56 17.12L50.56 17.12L50.56 33.12L36.56 33.12Z" id="bybACH1uY"></path><path d="M55.56 15.12C55.01 15.12 54.56 15.57 54.56 16.12C54.56 17.92 54.56 32.32 54.56 34.12C54.56 34.67 55.01 35.12 55.56 35.12C57.16 35.12 69.96 35.12 71.56 35.12C72.12 35.12 72.56 34.67 72.56 34.12C72.56 32.32 72.56 17.92 72.56 16.12C72.56 15.57 72.12 15.12 71.56 15.12C68.36 15.12 57.16 15.12 55.56 15.12ZM56.56 33.12L56.56 17.12L70.56 17.12L70.56 33.12L56.56 33.12Z" id="b2Gmm0be8G"></path><path d="M35.56 37.12C35.01 37.12 34.56 37.57 34.56 38.12C34.56 39.92 34.56 54.32 34.56 56.12C34.56 56.67 35.01 57.12 35.56 57.12C37.16 57.12 49.96 57.12 51.56 57.12C52.12 57.12 52.56 56.67 52.56 56.12C52.56 54.32 52.56 39.92 52.56 38.12C52.56 37.57 52.12 37.12 51.56 37.12C48.36 37.12 37.16 37.12 35.56 37.12ZM36.56 55.12L36.56 39.12L50.56 39.12L50.56 55.12L36.56 55.12Z" id="a3e3cKTWVs"></path><path d="M55.56 37.12C55.01 37.12 54.56 37.57 54.56 38.12C54.56 39.92 54.56 54.32 54.56 56.12C54.56 56.67 55.01 57.12 55.56 57.12C57.16 57.12 69.96 57.12 71.56 57.12C72.12 57.12 72.56 56.67 72.56 56.12C72.56 54.32 72.56 39.92 72.56 38.12C72.56 37.57 72.12 37.12 71.56 37.12C68.36 37.12 57.16 37.12 55.56 37.12ZM56.56 55.12L56.56 39.12L70.56 39.12L70.56 55.12L56.56 55.12Z" id="biUGNJl7q"></path><path d="M31.56 11.12C31.01 11.12 30.56 11.57 30.56 12.12C30.56 16.92 30.56 55.32 30.56 60.12C30.56 60.67 31.01 61.12 31.56 61.12C35.96 61.12 71.16 61.12 75.56 61.12C76.12 61.12 76.56 60.67 76.56 60.12C76.56 55.32 76.56 16.92 76.56 12.12C76.56 11.57 76.12 11.12 75.56 11.12C66.76 11.12 35.96 11.12 31.56 11.12ZM32.56 59.12L32.56 13.12L74.56 13.12L74.56 59.12L32.56 59.12Z" id="bCLmKwmta"></path><path d="M258.62 53L258.62 66.05L251.31 66.05L251.31 59.86L231.62 59.86L231.62 66.05L224.31 66.05L224.31 53L227.35 53L227.62 52.67L227.87 52.33L228.11 51.96L228.35 51.59L228.57 51.2L228.77 50.79L228.97 50.37L229.16 49.94L229.33 49.5L229.5 49.05L229.65 48.59L229.8 48.12L229.93 47.64L230.06 47.16L230.18 46.67L230.29 46.17L230.39 45.68L230.48 45.17L230.56 44.67L230.64 44.17L230.71 43.67L230.78 43.16L230.83 42.66L230.88 42.17L230.93 41.67L230.97 41.18L231 40.7L231.03 40.22L231.06 39.75L231.08 39.29L231.09 38.84L231.1 38.39L231.11 37.96L231.11 37.54L231.12 37.13L231.12 16.43L254.69 16.43L254.69 53L258.62 53ZM157.96 16.11L159.07 16.21L160.12 16.34L161.12 16.5L162.07 16.71L162.95 16.96L163.79 17.25L164.57 17.58L165.29 17.95L165.97 18.37L166.59 18.83L167.17 19.33L167.69 19.87L168.17 20.46L168.59 21.1L168.97 21.78L169.3 22.51L169.59 23.29L169.83 24.11L170.02 24.98L170.17 25.91L170.28 26.88L170.34 27.9L170.36 28.98L170.36 47.32L170.34 48.37L170.27 49.37L170.16 50.32L170.01 51.23L169.81 52.1L169.57 52.91L169.27 53.69L168.94 54.41L168.55 55.1L168.12 55.74L167.64 56.33L167.11 56.88L166.53 57.39L165.9 57.85L165.22 58.28L164.49 58.66L163.71 59L162.88 59.3L161.99 59.55L161.06 59.77L160.07 59.94L159.02 60.08L157.93 60.18L156.77 60.24L155.57 60.26L154.36 60.24L153.21 60.18L152.12 60.08L151.09 59.94L150.11 59.77L149.19 59.55L148.32 59.3L147.5 59L146.74 58.66L146.03 58.28L145.37 57.85L144.76 57.39L144.2 56.88L143.69 56.33L143.23 55.74L142.82 55.1L142.45 54.41L142.13 53.69L141.86 52.91L141.62 52.1L141.44 51.23L141.29 50.32L141.19 49.37L141.13 48.37L141.11 47.32L141.11 28.98L141.13 27.9L141.19 26.88L141.29 25.91L141.43 24.98L141.61 24.11L141.83 23.29L142.1 22.51L142.42 21.78L142.78 21.1L143.18 20.46L143.64 19.87L144.14 19.33L144.7 18.83L145.3 18.37L145.96 17.95L146.67 17.58L147.43 17.25L148.24 16.96L149.12 16.71L150.04 16.5L151.03 16.34L152.07 16.21L153.18 16.11L154.34 16.06L155.57 16.04L156.79 16.06L157.96 16.11ZM121.9 16.11L123.01 16.21L124.07 16.34L125.06 16.5L126.01 16.71L126.89 16.96L127.73 17.25L128.51 17.58L129.23 17.95L129.91 18.37L130.53 18.83L131.11 19.33L131.63 19.87L132.11 20.46L132.53 21.1L132.91 21.78L133.24 22.51L133.53 23.29L133.77 24.11L133.96 24.98L134.11 25.91L134.22 26.88L134.28 27.9L134.3 28.98L134.3 47.32L134.28 48.37L134.21 49.37L134.11 50.32L133.95 51.23L133.75 52.1L133.51 52.91L133.21 53.69L132.88 54.41L132.49 55.1L132.06 55.74L131.58 56.33L131.05 56.88L130.47 57.39L129.84 57.85L129.16 58.28L128.43 58.66L127.65 59L126.82 59.3L125.94 59.55L125 59.77L124.01 59.94L122.96 60.08L121.87 60.18L120.71 60.24L119.51 60.26L118.3 60.24L117.15 60.18L116.06 60.08L115.03 59.94L114.05 59.77L113.13 59.55L112.26 59.3L111.44 59L110.68 58.66L109.97 58.28L109.31 57.85L108.7 57.39L108.14 56.88L107.64 56.33L107.17 55.74L106.76 55.1L106.39 54.41L106.07 53.69L105.8 52.91L105.56 52.1L105.38 51.23L105.23 50.32L105.13 49.37L105.07 48.37L105.05 47.32L105.05 28.98L105.07 27.9L105.13 26.88L105.23 25.91L105.37 24.98L105.55 24.11L105.77 23.29L106.04 22.51L106.36 21.78L106.72 21.1L107.13 20.46L107.58 19.87L108.08 19.33L108.64 18.83L109.24 18.37L109.9 17.95L110.61 17.58L111.37 17.25L112.18 16.96L113.06 16.71L113.99 16.5L114.97 16.34L116.02 16.21L117.12 16.11L118.28 16.06L119.51 16.04L120.73 16.06L121.9 16.11ZM194.02 16.11L195.13 16.21L196.18 16.34L197.18 16.5L198.12 16.71L199.01 16.96L199.85 17.25L200.63 17.58L201.35 17.95L202.03 18.37L202.65 18.83L203.23 19.33L203.75 19.87L204.23 20.46L204.65 21.1L205.03 21.78L205.36 22.51L205.65 23.29L205.89 24.11L206.08 24.98L206.23 25.91L206.34 26.88L206.4 27.9L206.42 28.98L206.42 47.32L206.4 48.37L206.33 49.37L206.22 50.32L206.07 51.23L205.87 52.1L205.62 52.91L205.33 53.69L205 54.41L204.61 55.1L204.18 55.74L203.7 56.33L203.17 56.88L202.59 57.39L201.96 57.85L201.28 58.28L200.55 58.66L199.77 59L198.94 59.3L198.05 59.55L197.12 59.77L196.13 59.94L195.08 60.08L193.99 60.18L192.83 60.24L191.63 60.26L190.42 60.24L189.27 60.18L188.18 60.08L187.15 59.94L186.17 59.77L185.25 59.55L184.38 59.3L183.56 59L182.8 58.66L182.09 58.28L181.43 57.85L180.82 57.39L180.26 56.88L179.75 56.33L179.29 55.74L178.88 55.1L178.51 54.41L178.19 53.69L177.91 52.91L177.68 52.1L177.5 51.23L177.35 50.32L177.25 49.37L177.19 48.37L177.17 47.32L177.17 28.98L177.19 27.9L177.25 26.88L177.34 25.91L177.48 24.98L177.67 24.11L177.89 23.29L178.16 22.51L178.48 21.78L178.84 21.1L179.24 20.46L179.7 19.87L180.2 19.33L180.76 18.83L181.36 18.37L182.02 17.95L182.72 17.58L183.49 17.25L184.3 16.96L185.18 16.71L186.1 16.5L187.09 16.34L188.13 16.21L189.24 16.11L190.4 16.06L191.63 16.04L192.85 16.06L194.02 16.11ZM320.39 59.86L320.39 23.52L310.21 23.52L309.82 39.72L309.79 40.63L309.76 41.52L309.73 42.4L309.69 43.27L309.64 44.13L309.58 44.97L309.51 45.8L309.44 46.61L309.35 47.4L309.24 48.18L309.13 48.94L308.99 49.68L308.85 50.4L308.68 51.1L308.5 51.78L308.3 52.43L308.08 53.07L307.84 53.68L307.58 54.27L307.3 54.83L306.99 55.37L306.66 55.89L306.3 56.37L305.92 56.83L305.51 57.26L305.07 57.66L304.6 58.04L304.1 58.38L303.57 58.69L303.01 58.97L302.42 59.22L301.79 59.43L301.13 59.61L300.43 59.76L299.69 59.87L298.91 59.94L298.1 59.98L297.25 59.98L296.35 59.94L295.42 59.86L295.7 52.27L296.19 52.29L296.66 52.29L297.11 52.25L297.53 52.19L297.92 52.1L298.3 51.98L298.65 51.83L298.97 51.66L299.28 51.47L299.56 51.25L299.83 51.01L300.07 50.75L300.3 50.47L300.51 50.18L300.7 49.87L300.88 49.54L301.04 49.19L301.19 48.84L301.32 48.47L301.44 48.08L301.55 47.69L301.64 47.29L301.73 46.88L301.8 46.46L301.86 46.04L301.92 45.61L301.97 45.18L302.01 44.75L302.04 44.31L302.06 43.87L302.09 43.44L302.1 43L302.12 42.57L302.13 42.14L302.13 41.72L302.14 41.31L302.15 40.9L302.15 40.5L302.16 40.1L302.17 39.72L302.56 16.43L328.16 16.43L328.16 59.86L320.39 59.86ZM343.74 23.3L343.74 34.43L358.36 34.43L358.36 41.41L343.74 41.41L343.74 52.83L361.68 52.83L361.68 59.92L335.97 59.92L335.97 16.55L360.9 16.55L360.9 23.3L343.74 23.3ZM389.02 34.88L389.02 16.49L396.73 16.49L396.73 59.86L389.02 59.86L389.02 41.97L375.52 41.97L375.52 59.86L367.7 59.86L367.7 16.49L375.52 16.49L375.52 34.88L389.02 34.88ZM270.72 45.12L283.55 16.49L291.25 16.49L291.25 59.86L283.55 59.86L283.55 48.78L284.22 32.3L271.45 59.86L263.91 59.86L263.91 16.49L271.62 16.49L271.62 26.73L270.72 45.12ZM153.55 23.03L152.71 23.2L151.97 23.42L151.33 23.7L150.78 24.05L150.31 24.44L149.92 24.89L149.61 25.39L149.36 25.94L149.17 26.54L149.03 27.19L148.94 27.87L148.89 28.6L148.87 29.37L148.87 46.92L148.89 47.72L148.94 48.47L149.03 49.17L149.17 49.82L149.36 50.43L149.61 50.97L149.92 51.47L150.31 51.91L150.78 52.3L151.33 52.63L151.97 52.9L152.71 53.11L153.55 53.27L154.5 53.36L155.57 53.39L156.64 53.36L157.6 53.27L158.46 53.11L159.22 52.9L159.89 52.63L160.47 52.3L160.97 51.91L161.39 51.47L161.74 50.97L162.02 50.43L162.24 49.82L162.41 49.17L162.52 48.47L162.58 47.72L162.6 46.92L162.6 29.37L162.58 28.6L162.53 27.87L162.44 27.19L162.31 26.54L162.11 25.94L161.86 25.39L161.53 24.89L161.13 24.44L160.64 24.05L160.06 23.7L159.39 23.42L158.61 23.2L157.72 23.03L156.7 22.94L155.57 22.9L154.5 22.94L153.55 23.03ZM117.49 23.03L116.65 23.2L115.91 23.42L115.27 23.7L114.72 24.05L114.25 24.44L113.87 24.89L113.55 25.39L113.3 25.94L113.11 26.54L112.97 27.19L112.88 27.87L112.83 28.6L112.81 29.37L112.81 46.92L112.83 47.72L112.88 48.47L112.97 49.17L113.11 49.82L113.3 50.43L113.55 50.97L113.87 51.47L114.25 51.91L114.72 52.3L115.27 52.63L115.91 52.9L116.65 53.11L117.49 53.27L118.44 53.36L119.51 53.39L120.58 53.36L121.54 53.27L122.4 53.11L123.16 52.9L123.83 52.63L124.41 52.3L124.91 51.91L125.33 51.47L125.68 50.97L125.97 50.43L126.19 49.82L126.35 49.17L126.46 48.47L126.52 47.72L126.54 46.92L126.54 29.37L126.52 28.6L126.48 27.87L126.39 27.19L126.25 26.54L126.05 25.94L125.8 25.39L125.47 24.89L125.07 24.44L124.58 24.05L124.01 23.7L123.33 23.42L122.55 23.2L121.66 23.03L120.65 22.94L119.51 22.9L118.44 22.94L117.49 23.03ZM189.61 23.03L188.77 23.2L188.03 23.42L187.39 23.7L186.84 24.05L186.37 24.44L185.98 24.89L185.67 25.39L185.42 25.94L185.23 26.54L185.09 27.19L185 27.87L184.95 28.6L184.93 29.37L184.93 46.92L184.95 47.72L185 48.47L185.09 49.17L185.23 49.82L185.42 50.43L185.67 50.97L185.98 51.47L186.37 51.91L186.84 52.3L187.39 52.63L188.03 52.9L188.77 53.11L189.61 53.27L190.56 53.36L191.63 53.39L192.69 53.36L193.66 53.27L194.52 53.11L195.28 52.9L195.95 52.63L196.53 52.3L197.03 51.91L197.45 51.47L197.8 50.97L198.08 50.43L198.3 49.82L198.47 49.17L198.58 48.47L198.64 47.72L198.66 46.92L198.66 29.37L198.64 28.6L198.59 27.87L198.5 27.19L198.37 26.54L198.17 25.94L197.92 25.39L197.59 24.89L197.19 24.44L196.7 24.05L196.12 23.7L195.45 23.42L194.67 23.2L193.78 23.03L192.76 22.94L191.63 22.9L190.56 22.94L189.61 23.03ZM238.71 37.13L238.7 38.06L238.67 39.02L238.61 40.02L238.54 41.05L238.43 42.09L238.3 43.16L238.14 44.23L237.94 45.3L237.72 46.36L237.46 47.41L237.17 48.44L236.84 49.44L236.47 50.4L236.06 51.32L235.6 52.19L235.11 53L246.98 53L246.98 23.35L238.71 23.35L238.71 37.13Z" id="c1iWXE7II0"></path></defs><g><g><g><use xlink:href="#d4Co4P9Fh" opacity="1" fill="#ff671f" fill-opacity="1"></use></g><g><g><use xlink:href="#b3a0dinh8U" opacity="1" fill="#ffffff" fill-opacity="1"></use><g><use xlink:href="#b3a0dinh8U" opacity="1" fill-opacity="0" stroke="#000000" stroke-width="1" stroke-opacity="0"></use></g></g><g><use xlink:href="#bybACH1uY" opacity="1" fill="#ffffff" fill-opacity="1"></use><g><use xlink:href="#bybACH1uY" opacity="1" fill-opacity="0" stroke="#000000" stroke-width="1" stroke-opacity="0"></use></g></g><g><use xlink:href="#b2Gmm0be8G" opacity="1" fill="#ffffff" fill-opacity="1"></use><g><use xlink:href="#b2Gmm0be8G" opacity="1" fill-opacity="0" stroke="#000000" stroke-width="1" stroke-opacity="0"></use></g></g><g><use xlink:href="#a3e3cKTWVs" opacity="1" fill="#ffffff" fill-opacity="1"></use><g><use xlink:href="#a3e3cKTWVs" opacity="1" fill-opacity="0" stroke="#000000" stroke-width="1" stroke-opacity="0"></use></g></g><g><use xlink:href="#biUGNJl7q" opacity="1" fill="#ffffff" fill-opacity="1"></use><g><use xlink:href="#biUGNJl7q" opacity="1" fill-opacity="0" stroke="#000000" stroke-width="1" stroke-opacity="0"></use></g></g><g><use xlink:href="#bCLmKwmta" opacity="1" fill="#ffffff" fill-opacity="1"></use><g><use xlink:href="#bCLmKwmta" opacity="1" fill-opacity="0" stroke="#000000" stroke-width="1" stroke-opacity="0"></use></g></g></g><g><use xlink:href="#c1iWXE7II0" opacity="1" fill="#ffffff" fill-opacity="1"></use><g><use xlink:href="#c1iWXE7II0" opacity="1" fill-opacity="0" stroke="#000000" stroke-width="1" stroke-opacity="0"></use></g></g></g></g></svg>